<?xml version="1.0" encoding="UTF-8" standalone="no"?>
<!-- Created with Inkscape (http://www.inkscape.org/) -->

<svg
   width="210mm"
   height="297mm"
   viewBox="0 0 210 297"
   version="1.1"
   id="svg1"
   xmlns:inkscape="http://www.inkscape.org/namespaces/inkscape"
   xmlns:sodipodi="http://sodipodi.sourceforge.net/DTD/sodipodi-0.dtd"
   xmlns="http://www.w3.org/2000/svg"
   xmlns:svg="http://www.w3.org/2000/svg">
  <sodipodi:namedview
     id="namedview1"
     pagecolor="#ffffff"
     bordercolor="#000000"
     borderopacity="0.25"
     inkscape:showpageshadow="2"
     inkscape:pageopacity="0.0"
     inkscape:pagecheckerboard="0"
     inkscape:deskcolor="#d1d1d1"
     inkscape:document-units="mm" />
  <defs
     id="defs1" />
  <g
     inkscape:label="Lag 1"
     inkscape:groupmode="layer"
     id="layer1">
    <path
       style="fill:#2f2f2f;fill-opacity:1;stroke-width:0.367001"
       d="M 38.3698,62.159078 43.485776,85.436757 69.57724,79.29759 55.764112,56.019908 Z"
       id="path3" />
    <path
       style="fill:#2f2f2f;fill-opacity:1;stroke-width:0.367001"
       d="m 87.738946,84.413563 4.092779,30.440037 27.370455,-6.65076 -8.69715,-27.370458 z"
       id="path4" />
    <path
       style="fill:#2f2f2f;fill-opacity:1;stroke-width:0.367001"
       d="M 29.928444,97.459296 54.485119,94.389711 57.8105,125.34135 29.672647,126.62034 Z"
       id="path5" />
    <path
       style="fill:#2f2f2f;fill-opacity:1;stroke-width:0.367001"
       d="m 67.27505,132.75951 15.60372,23.02188 21.74289,-15.34792 -20.335997,-20.46389 z"
       id="path6" />
    <path
       style="fill:#2b2b2b;fill-opacity:1;stroke-width:0.367001"
       d="m 71.989036,223.56394 5.426311,-51.73081 -41.23995,-3.9793 -3.61754,22.7905 11.937878,0.72351 -4.702799,35.45189 z"
       id="path7" />
    <path
       style="fill:#dfdfdf;fill-opacity:1;stroke-width:0.367001"
       d="m 45.400121,73.074299 2.622716,4.431485 0.904386,-0.452192 -0.452194,-5.154993 4.341048,3.979294 2.803593,-0.633072 -1.356576,-7.868147 -1.989649,0.994823 0.994826,5.245433 -4.974119,-4.521925 -1.627891,1.26614 0.813945,3.346222 -2.803594,-4.16017 z"
       id="path8" />
    <path
       style="fill:#dfdfdf;fill-opacity:1;stroke-width:0.367001"
       d="m 94.689098,93.694275 1.627891,14.108405 c 0,0 2.080086,0.72351 4.793241,-0.36176 2.71316,-1.08526 4.06973,-2.3514 4.79324,-4.52192 0.72351,-2.17052 2.17052,-4.88368 1.08526,-6.963762 -1.08526,-2.080086 -3.97929,-4.250611 -5.60718,-4.793242 -1.627896,-0.542631 -5.064561,0.09044 -5.697629,1.085262 -0.633069,0.994823 -0.994823,1.447017 -0.994823,1.447017 z"
       id="path9" />
    <path
       style="fill:#2d2d2d;fill-opacity:1;stroke-width:0.367001"
       d="m 97.492692,96.136112 1.447014,8.410778 c 0,0 2.170524,-0.54263 3.165344,-2.44184 0.99483,-1.8992 2.17053,-3.617535 1.26614,-4.793235 -0.90438,-1.175703 -3.436661,-2.170526 -4.431484,-2.080086 -0.994823,0.09044 -1.447014,0.904383 -1.447014,0.904383 z"
       id="path10" />
    <path
       style="fill:#dedede;fill-opacity:1;stroke-width:0.367001"
       d="m 34.095311,120.73538 8.049025,-20.16778 3.707979,-0.0904 8.591656,19.17296 -4.341048,0.45219 -5.607188,-15.82673 -1.899208,0.45219 -4.341045,16.18849 z"
       id="path11" />
    <path
       style="fill:#dedede;fill-opacity:1;stroke-width:0.367001"
       d="m 39.612059,113.04811 8.95341,-0.99482 -0.723509,-2.3514 -8.229901,2.3514 z"
       id="path12" />
    <path
       style="fill:#dedede;fill-opacity:1;stroke-width:0.367001"
       d="m 85.820455,126.87614 c -7.162363,0.7674 -7.737909,-0.2558 -7.865808,3.38934 -0.1279,3.64513 1.406893,4.60437 3.453281,4.79622 2.04639,0.19185 7.034463,0.6395 7.865808,2.55799 0.831347,1.91849 1.726642,2.74983 -1.47084,4.02883 -3.197484,1.27899 -5.94732,1.40689 -6.203119,2.62193 -0.255799,1.21505 -1.726642,2.81379 1.726642,3.26143 3.453281,0.44765 7.993708,-0.76739 9.46455,-3.00563 1.470843,-2.23824 1.918491,-5.56362 0.959244,-7.16236 -0.959244,-1.59874 -1.151093,-3.19749 -3.836979,-3.45328 -2.685886,-0.2558 -4.220678,-0.2558 -5.94732,-0.83135 -1.726639,-0.57555 -4.092779,-1.53479 -1.982438,-2.49404 2.110338,-0.95924 3.58118,-1.15109 4.924123,-1.53479 1.342943,-0.3837 -1.087144,-2.17429 -1.087144,-2.17429 z"
       id="path13" />
    <path
       style="fill:#dedede;fill-opacity:1;stroke-width:0.367001"
       d="m 47.322755,177.52428 c -3.069584,2.04639 -4.476477,3.83698 -2.430086,5.75547 2.046388,1.91849 5.755467,1.53479 5.499671,0.7674 -0.255799,-0.7674 -2.685886,-1.6627 -3.197484,-2.43009 -0.511599,-0.7674 2.685886,-2.17429 2.685886,-2.17429 0,0 4.476477,-2.81379 1.662692,-2.94169 -2.813786,-0.12789 -4.220679,1.0232 -4.220679,1.0232 z"
       id="path14" />
    <path
       style="fill:#dedede;fill-opacity:1;stroke-width:0.367001"
       d="m 50.903936,177.01268 c 2.430086,1.53479 3.197484,2.94169 1.406892,3.32539 -1.790591,0.38369 -4.476477,-0.2558 -4.476477,-0.2558 l 4.092779,2.30218 c 0,0 4.604377,-0.76739 4.220678,-2.17428 -0.383696,-1.4069 -5.243872,-3.19749 -5.243872,-3.19749 z"
       id="path15" />
    <path
       style="fill:#dedede;fill-opacity:1;stroke-width:0.367001"
       d="m 56.275707,182.89605 c -4.732273,3.58118 2.43009,1.91849 -1.151093,2.81379 -3.58118,0.89529 2.557986,1.79059 2.557986,1.79059 l -1.406893,2.81378 -4.092778,0.8953 2.17429,1.66269 5.115973,-1.66269 0.255799,-4.86018 -2.30219,-0.51159 z"
       id="path16" />
    <path
       style="fill:#dedede;fill-opacity:1;stroke-width:0.367001"
       d="m 57.8105,198.37187 5.115975,-3.32538 -1.534792,-3.45328 3.964879,-0.3837 2.174288,9.72035 -2.302188,-0.5116 -1.023194,-3.70908 z"
       id="path17" />
    <path
       style="fill:#dedede;fill-opacity:1;stroke-width:0.367001"
       d="m 66.763455,203.74364 c -3.581183,-1.53479 -6.394969,-2.55798 -7.546062,-1.40689 -1.151094,1.1511 -2.557987,2.68589 -2.430087,3.32538 0.127899,0.6395 1.406893,2.30219 2.430087,2.30219 1.023194,0 2.17429,-2.55798 2.17429,-2.55798 0,0 1.918488,-1.4069 2.302187,-0.8953 0.383699,0.5116 1.278993,2.30219 1.278993,2.30219 0,0 0.383699,2.94168 1.534792,3.06958 1.151094,0.1279 3.453281,-1.53479 3.453281,-2.30219 0,-0.76739 -3.197481,-3.83698 -3.197481,-3.83698 z"
       id="path18" />
    <path
       style="fill:#dedede;fill-opacity:1;stroke-width:0.367001"
       d="m 65.868158,209.37122 -3.581181,-0.3837 2.685886,-3.19749 -3.70908,2.81379 0.767395,2.68588 h 3.325384 z"
       id="path19" />
    <path
       style="fill:#dedede;fill-opacity:1;stroke-width:0.367001"
       d="m 54.10142,210.26651 9.080852,3.45328 -1.023194,3.58118 -3.581181,1.4069 v -2.55799 l 1.278993,-0.5116 -2.302189,-0.76739 -7.929759,3.06958 0.639498,-3.06958 6.394966,-1.279 -5.115972,-2.94168 z"
       id="path20" />
    <text
       xml:space="preserve"
       style="font-size:7.76111px;font-family:Forte;-inkscape-font-specification:Forte;fill:#dedede;fill-opacity:1;stroke-width:0.367001"
       x="8.9932079"
       y="61.918404"
       id="text21"
       transform="rotate(-6.7573824)"><tspan
         sodipodi:role="line"
         id="tspan21"
         style="font-size:7.76111px;stroke-width:0.367"
         x="8.9932079"
         y="61.918404">Go Fast, Go up in menu</tspan><tspan
         sodipodi:role="line"
         style="font-size:7.76111px;stroke-width:0.367"
         x="8.9932079"
         y="71.619789"
         id="tspan22" /></text>
    <text
       xml:space="preserve"
       style="font-size:6.35px;font-family:Forte;-inkscape-font-specification:Forte;fill:#dedede;fill-opacity:1;stroke-width:0.367001"
       x="88.889145"
       y="63.883713"
       id="text23"
       transform="rotate(7.6232577)"><tspan
         sodipodi:role="line"
         id="tspan23"
         style="font-size:6.35px;stroke-width:0.367"
         x="88.889145"
         y="63.883713">Go Right, right in menu</tspan><tspan
         sodipodi:role="line"
         style="font-size:6.35px;stroke-width:0.367"
         x="88.889145"
         y="71.821213"
         id="tspan24" /></text>
    <text
       xml:space="preserve"
       style="font-size:6.35px;font-family:Forte;-inkscape-font-specification:Forte;fill:#dedede;fill-opacity:1;stroke-width:0.367001"
       x="17.138512"
       y="93.110725"
       id="text25"><tspan
         sodipodi:role="line"
         id="tspan25"
         style="font-size:6.35px;stroke-width:0.367"
         x="17.138512"
         y="93.110725">Turn left, left in menu</tspan></text>
    <text
       xml:space="preserve"
       style="font-size:7.76111px;font-family:Forte;-inkscape-font-specification:Forte;fill:#dedede;fill-opacity:1;stroke-width:0.367001"
       x="60.62429"
       y="120.09748"
       id="text26"><tspan
         sodipodi:role="line"
         id="tspan26"
         style="font-size:7.76111px;stroke-width:0.367"
         x="60.62429"
         y="120.09748">Break, down in menu</tspan></text>
    <text
       xml:space="preserve"
       style="font-size:11.2889px;font-family:Forte;-inkscape-font-specification:Forte;fill:#dedede;fill-opacity:1;stroke-width:0.367001"
       x="77.61113"
       y="145.4296"
       id="text27"
       transform="rotate(14.500427)"><tspan
         sodipodi:role="line"
         id="tspan27"
         style="font-size:11.2889px;stroke-width:0.367"
         x="77.61113"
         y="145.4296">Confirm!</tspan></text>
  </g>
</svg>
