# Blender v3.0.1 OBJ File: ''
# www.blender.org
mtllib finish_flag.mtl
o Cylinder
v 0.000000 0.106082 -9.055556
v 0.000000 14.196077 -9.055556
v 0.106319 0.106082 -9.045085
v 0.106319 14.196077 -9.045085
v 0.208552 0.106082 -9.014072
v 0.208552 14.196077 -9.014072
v 0.302770 0.106082 -8.963712
v 0.302770 14.196077 -8.963712
v 0.385354 0.106082 -8.895938
v 0.385354 14.196077 -8.895938
v 0.453128 0.106082 -8.813354
v 0.453128 14.196077 -8.813354
v 0.503489 0.106082 -8.719135
v 0.503489 14.196077 -8.719135
v 0.534501 0.106082 -8.616902
v 0.534501 14.196077 -8.616902
v 0.544972 0.106082 -8.510584
v 0.544972 14.196077 -8.510584
v 0.534501 0.106082 -8.404265
v 0.534501 14.196077 -8.404265
v 0.503489 0.106082 -8.302032
v 0.503489 14.196077 -8.302032
v 0.453128 0.106082 -8.207813
v 0.453128 14.196077 -8.207813
v 0.385354 0.106082 -8.125230
v 0.385354 14.196077 -8.125230
v 0.302770 0.106082 -8.057456
v 0.302770 14.196077 -8.057456
v 0.208552 0.106082 -8.007095
v 0.208552 14.196077 -8.007095
v 0.106319 0.106082 -7.976083
v 0.106319 14.196077 -7.976083
v -0.000000 0.106082 -7.965611
v -0.000000 14.196077 -7.965611
v -0.106319 0.106082 -7.976083
v -0.106319 14.196077 -7.976083
v -0.208552 0.106082 -8.007095
v -0.208552 14.196077 -8.007095
v -0.302770 0.106082 -8.057456
v -0.302770 14.196077 -8.057456
v -0.385354 0.106082 -8.125230
v -0.385354 14.196077 -8.125230
v -0.453128 0.106082 -8.207813
v -0.453128 14.196077 -8.207813
v -0.503489 0.106082 -8.302032
v -0.503489 14.196077 -8.302032
v -0.534501 0.106082 -8.404265
v -0.534501 14.196077 -8.404265
v -0.544972 0.106082 -8.510584
v -0.544972 14.196077 -8.510584
v -0.534501 0.106082 -8.616902
v -0.534501 14.196077 -8.616902
v -0.503489 0.106082 -8.719136
v -0.503489 14.196077 -8.719136
v -0.453128 0.106082 -8.813354
v -0.453128 14.196077 -8.813354
v -0.385354 0.106082 -8.895937
v -0.385354 14.196077 -8.895937
v -0.302770 0.106082 -8.963712
v -0.302770 14.196077 -8.963712
v -0.208552 0.106082 -9.014072
v -0.208552 14.196077 -9.014072
v -0.106319 0.106082 -9.045085
v -0.106319 14.196077 -9.045085
vt 1.000000 0.500000
vt 0.968750 1.000000
vt 0.968750 0.500000
vt 0.937500 1.000000
vt 0.937500 0.500000
vt 0.906250 1.000000
vt 0.906250 0.500000
vt 0.875000 1.000000
vt 0.875000 0.500000
vt 0.843750 1.000000
vt 0.843750 0.500000
vt 0.812500 1.000000
vt 0.812500 0.500000
vt 0.781250 1.000000
vt 0.781250 0.500000
vt 0.750000 1.000000
vt 0.750000 0.500000
vt 0.718750 1.000000
vt 0.718750 0.500000
vt 0.687500 1.000000
vt 0.687500 0.500000
vt 0.656250 1.000000
vt 0.656250 0.500000
vt 0.625000 1.000000
vt 0.625000 0.500000
vt 0.593750 1.000000
vt 0.593750 0.500000
vt 0.562500 1.000000
vt 0.562500 0.500000
vt 0.531250 1.000000
vt 0.531250 0.500000
vt 0.500000 1.000000
vt 0.500000 0.500000
vt 0.468750 1.000000
vt 0.468750 0.500000
vt 0.437500 1.000000
vt 0.437500 0.500000
vt 0.406250 1.000000
vt 0.406250 0.500000
vt 0.375000 1.000000
vt 0.375000 0.500000
vt 0.343750 1.000000
vt 0.343750 0.500000
vt 0.312500 1.000000
vt 0.312500 0.500000
vt 0.281250 1.000000
vt 0.281250 0.500000
vt 0.250000 1.000000
vt 0.250000 0.500000
vt 0.218750 1.000000
vt 0.218750 0.500000
vt 0.187500 1.000000
vt 0.187500 0.500000
vt 0.156250 1.000000
vt 0.156250 0.500000
vt 0.125000 1.000000
vt 0.125000 0.500000
vt 0.093750 1.000000
vt 0.093750 0.500000
vt 0.062500 1.000000
vt 0.062500 0.500000
vt 0.158156 0.028269
vt 0.471731 0.158156
vt 0.341844 0.471731
vt 0.031250 1.000000
vt 0.031250 0.500000
vt 0.000000 1.000000
vt 0.000000 0.500000
vt 0.796822 0.014612
vt 0.514612 0.203178
vt 0.703178 0.485388
vt 1.000000 1.000000
vt 0.296822 0.485388
vt 0.250000 0.490000
vt 0.203178 0.485388
vt 0.158156 0.471731
vt 0.116663 0.449553
vt 0.080294 0.419706
vt 0.050447 0.383337
vt 0.028269 0.341844
vt 0.014612 0.296822
vt 0.010000 0.250000
vt 0.014612 0.203178
vt 0.028269 0.158156
vt 0.050447 0.116663
vt 0.080294 0.080294
vt 0.116663 0.050447
vt 0.203178 0.014612
vt 0.250000 0.010000
vt 0.296822 0.014612
vt 0.341844 0.028269
vt 0.383337 0.050447
vt 0.419706 0.080294
vt 0.449553 0.116663
vt 0.485388 0.203178
vt 0.490000 0.250000
vt 0.485388 0.296822
vt 0.471731 0.341844
vt 0.449553 0.383337
vt 0.419706 0.419706
vt 0.383337 0.449553
vt 0.750000 0.490000
vt 0.796822 0.485388
vt 0.841844 0.471731
vt 0.883337 0.449553
vt 0.919706 0.419706
vt 0.949553 0.383337
vt 0.971731 0.341844
vt 0.985388 0.296822
vt 0.990000 0.250000
vt 0.985388 0.203178
vt 0.971731 0.158156
vt 0.949553 0.116663
vt 0.919706 0.080294
vt 0.883337 0.050447
vt 0.841844 0.028269
vt 0.750000 0.010000
vt 0.703178 0.014612
vt 0.658156 0.028269
vt 0.616663 0.050447
vt 0.580294 0.080294
vt 0.550447 0.116663
vt 0.528269 0.158156
vt 0.510000 0.250000
vt 0.514612 0.296822
vt 0.528269 0.341844
vt 0.550447 0.383337
vt 0.580294 0.419706
vt 0.616663 0.449553
vt 0.658156 0.471731
vn 0.0980 0.0000 -0.9952
vn 0.2903 0.0000 -0.9569
vn 0.4714 0.0000 -0.8819
vn 0.6344 0.0000 -0.7730
vn 0.7730 0.0000 -0.6344
vn 0.8819 0.0000 -0.4714
vn 0.9569 0.0000 -0.2903
vn 0.9952 0.0000 -0.0980
vn 0.9952 0.0000 0.0980
vn 0.9569 0.0000 0.2903
vn 0.8819 0.0000 0.4714
vn 0.7730 0.0000 0.6344
vn 0.6344 0.0000 0.7730
vn 0.4714 0.0000 0.8819
vn 0.2903 0.0000 0.9569
vn 0.0980 0.0000 0.9952
vn -0.0980 0.0000 0.9952
vn -0.2903 0.0000 0.9569
vn -0.4714 0.0000 0.8819
vn -0.6344 0.0000 0.7730
vn -0.7730 0.0000 0.6344
vn -0.8819 0.0000 0.4714
vn -0.9569 0.0000 0.2903
vn -0.9952 0.0000 0.0980
vn -0.9952 0.0000 -0.0980
vn -0.9569 0.0000 -0.2903
vn -0.8819 0.0000 -0.4714
vn -0.7730 0.0000 -0.6344
vn -0.6344 0.0000 -0.7730
vn -0.4714 0.0000 -0.8819
vn 0.0000 1.0000 0.0000
vn -0.2903 0.0000 -0.9569
vn -0.0980 0.0000 -0.9952
vn 0.0000 -1.0000 0.0000
vn 0.0000 1.0000 -0.0001
vn 0.0000 1.0000 0.0001
usemtl Material.003
s off
f 1/1/1 4/2/1 3/3/1
f 3/3/2 6/4/2 5/5/2
f 5/5/3 8/6/3 7/7/3
f 7/7/4 10/8/4 9/9/4
f 9/9/5 12/10/5 11/11/5
f 11/11/6 14/12/6 13/13/6
f 13/13/7 16/14/7 15/15/7
f 15/15/8 18/16/8 17/17/8
f 17/17/9 20/18/9 19/19/9
f 19/19/10 22/20/10 21/21/10
f 21/21/11 24/22/11 23/23/11
f 23/23/12 26/24/12 25/25/12
f 25/25/13 28/26/13 27/27/13
f 27/27/14 30/28/14 29/29/14
f 29/29/15 32/30/15 31/31/15
f 31/31/16 34/32/16 33/33/16
f 33/33/17 36/34/17 35/35/17
f 35/35/18 38/36/18 37/37/18
f 37/37/19 40/38/19 39/39/19
f 39/39/20 42/40/20 41/41/20
f 41/41/21 44/42/21 43/43/21
f 43/43/22 46/44/22 45/45/22
f 45/45/23 48/46/23 47/47/23
f 47/47/24 50/48/24 49/49/24
f 49/49/25 52/50/25 51/51/25
f 51/51/26 54/52/26 53/53/26
f 53/53/27 56/54/27 55/55/27
f 55/55/28 58/56/28 57/57/28
f 57/57/29 60/58/29 59/59/29
f 59/59/30 62/60/30 61/61/30
f 38/62/31 22/63/31 6/64/31
f 61/61/32 64/65/32 63/66/32
f 63/66/33 2/67/33 1/68/33
f 31/69/34 47/70/34 63/71/34
f 1/1/1 2/72/1 4/2/1
f 3/3/2 4/2/2 6/4/2
f 5/5/3 6/4/3 8/6/3
f 7/7/4 8/6/4 10/8/4
f 9/9/5 10/8/5 12/10/5
f 11/11/6 12/10/6 14/12/6
f 13/13/7 14/12/7 16/14/7
f 15/15/8 16/14/8 18/16/8
f 17/17/9 18/16/9 20/18/9
f 19/19/10 20/18/10 22/20/10
f 21/21/11 22/20/11 24/22/11
f 23/23/12 24/22/12 26/24/12
f 25/25/13 26/24/13 28/26/13
f 27/27/14 28/26/14 30/28/14
f 29/29/15 30/28/15 32/30/15
f 31/31/16 32/30/16 34/32/16
f 33/33/17 34/32/17 36/34/17
f 35/35/18 36/34/18 38/36/18
f 37/37/19 38/36/19 40/38/19
f 39/39/20 40/38/20 42/40/20
f 41/41/21 42/40/21 44/42/21
f 43/43/22 44/42/22 46/44/22
f 45/45/23 46/44/23 48/46/23
f 47/47/24 48/46/24 50/48/24
f 49/49/25 50/48/25 52/50/25
f 51/51/26 52/50/26 54/52/26
f 53/53/27 54/52/27 56/54/27
f 55/55/28 56/54/28 58/56/28
f 57/57/29 58/56/29 60/58/29
f 59/59/30 60/58/30 62/60/30
f 6/64/35 4/73/35 2/74/35
f 2/74/31 64/75/31 62/76/31
f 62/76/36 60/77/36 58/78/36
f 58/78/35 56/79/35 54/80/35
f 54/80/31 52/81/31 50/82/31
f 50/82/31 48/83/31 46/84/31
f 46/84/36 44/85/36 42/86/36
f 42/86/31 40/87/31 38/62/31
f 38/62/31 36/88/31 34/89/31
f 34/89/31 32/90/31 30/91/31
f 30/91/31 28/92/31 26/93/31
f 26/93/35 24/94/35 22/63/35
f 22/63/31 20/95/31 18/96/31
f 18/96/31 16/97/31 14/98/31
f 14/98/31 12/99/31 10/100/31
f 10/100/31 8/101/31 6/64/31
f 6/64/31 2/74/31 62/76/31
f 62/76/31 58/78/31 54/80/31
f 54/80/31 50/82/31 46/84/31
f 46/84/35 42/86/35 38/62/35
f 38/62/31 34/89/31 30/91/31
f 30/91/31 26/93/31 22/63/31
f 22/63/31 18/96/31 14/98/31
f 14/98/31 10/100/31 6/64/31
f 6/64/31 62/76/31 54/80/31
f 54/80/31 46/84/31 38/62/31
f 38/62/31 30/91/31 22/63/31
f 22/63/31 14/98/31 6/64/31
f 6/64/31 54/80/31 38/62/31
f 61/61/32 62/60/32 64/65/32
f 63/66/33 64/65/33 2/67/33
f 63/71/34 1/102/34 3/103/34
f 3/103/34 5/104/34 7/105/34
f 7/105/34 9/106/34 11/107/34
f 11/107/34 13/108/34 15/109/34
f 15/109/34 17/110/34 19/111/34
f 19/111/34 21/112/34 23/113/34
f 23/113/34 25/114/34 27/115/34
f 27/115/34 29/116/34 31/69/34
f 31/69/34 33/117/34 35/118/34
f 35/118/34 37/119/34 39/120/34
f 39/120/34 41/121/34 43/122/34
f 43/122/34 45/123/34 47/70/34
f 47/70/34 49/124/34 51/125/34
f 51/125/34 53/126/34 55/127/34
f 55/127/34 57/128/34 59/129/34
f 59/129/34 61/130/34 63/71/34
f 63/71/34 3/103/34 7/105/34
f 7/105/34 11/107/34 15/109/34
f 15/109/34 19/111/34 23/113/34
f 23/113/34 27/115/34 31/69/34
f 31/69/34 35/118/34 39/120/34
f 39/120/34 43/122/34 47/70/34
f 47/70/34 51/125/34 55/127/34
f 55/127/34 59/129/34 63/71/34
f 63/71/34 7/105/34 15/109/34
f 15/109/34 23/113/34 31/69/34
f 31/69/34 39/120/34 47/70/34
f 47/70/34 55/127/34 63/71/34
f 63/71/34 15/109/34 31/69/34
o Cylinder.001
v 0.000000 0.106082 8.242426
v 0.000000 14.196077 8.242426
v 0.106319 0.106082 8.252897
v 0.106319 14.196077 8.252897
v 0.208552 0.106082 8.283910
v 0.208552 14.196077 8.283910
v 0.302770 0.106082 8.334270
v 0.302770 14.196077 8.334270
v 0.385354 0.106082 8.402044
v 0.385354 14.196077 8.402044
v 0.453128 0.106082 8.484628
v 0.453128 14.196077 8.484628
v 0.503489 0.106082 8.578847
v 0.503489 14.196077 8.578847
v 0.534501 0.106082 8.681080
v 0.534501 14.196077 8.681080
v 0.544972 0.106082 8.787398
v 0.544972 14.196077 8.787398
v 0.534501 0.106082 8.893717
v 0.534501 14.196077 8.893717
v 0.503489 0.106082 8.995950
v 0.503489 14.196077 8.995950
v 0.453128 0.106082 9.090169
v 0.453128 14.196077 9.090169
v 0.385354 0.106082 9.172752
v 0.385354 14.196077 9.172752
v 0.302770 0.106082 9.240526
v 0.302770 14.196077 9.240526
v 0.208552 0.106082 9.290887
v 0.208552 14.196077 9.290887
v 0.106319 0.106082 9.321899
v 0.106319 14.196077 9.321899
v -0.000000 0.106082 9.332371
v -0.000000 14.196077 9.332371
v -0.106319 0.106082 9.321899
v -0.106319 14.196077 9.321899
v -0.208552 0.106082 9.290887
v -0.208552 14.196077 9.290887
v -0.302770 0.106082 9.240526
v -0.302770 14.196077 9.240526
v -0.385354 0.106082 9.172752
v -0.385354 14.196077 9.172752
v -0.453128 0.106082 9.090169
v -0.453128 14.196077 9.090169
v -0.503489 0.106082 8.995951
v -0.503489 14.196077 8.995951
v -0.534501 0.106082 8.893717
v -0.534501 14.196077 8.893717
v -0.544972 0.106082 8.787398
v -0.544972 14.196077 8.787398
v -0.534501 0.106082 8.681080
v -0.534501 14.196077 8.681080
v -0.503489 0.106082 8.578846
v -0.503489 14.196077 8.578846
v -0.453128 0.106082 8.484628
v -0.453128 14.196077 8.484628
v -0.385354 0.106082 8.402044
v -0.385354 14.196077 8.402044
v -0.302770 0.106082 8.334270
v -0.302770 14.196077 8.334270
v -0.208552 0.106082 8.283910
v -0.208552 14.196077 8.283910
v -0.106319 0.106082 8.252897
v -0.106319 14.196077 8.252897
vt 1.000000 0.500000
vt 0.968750 1.000000
vt 0.968750 0.500000
vt 0.937500 1.000000
vt 0.937500 0.500000
vt 0.906250 1.000000
vt 0.906250 0.500000
vt 0.875000 1.000000
vt 0.875000 0.500000
vt 0.843750 1.000000
vt 0.843750 0.500000
vt 0.812500 1.000000
vt 0.812500 0.500000
vt 0.781250 1.000000
vt 0.781250 0.500000
vt 0.750000 1.000000
vt 0.750000 0.500000
vt 0.718750 1.000000
vt 0.718750 0.500000
vt 0.687500 1.000000
vt 0.687500 0.500000
vt 0.656250 1.000000
vt 0.656250 0.500000
vt 0.625000 1.000000
vt 0.625000 0.500000
vt 0.593750 1.000000
vt 0.593750 0.500000
vt 0.562500 1.000000
vt 0.562500 0.500000
vt 0.531250 1.000000
vt 0.531250 0.500000
vt 0.500000 1.000000
vt 0.500000 0.500000
vt 0.468750 1.000000
vt 0.468750 0.500000
vt 0.437500 1.000000
vt 0.437500 0.500000
vt 0.406250 1.000000
vt 0.406250 0.500000
vt 0.375000 1.000000
vt 0.375000 0.500000
vt 0.343750 1.000000
vt 0.343750 0.500000
vt 0.312500 1.000000
vt 0.312500 0.500000
vt 0.281250 1.000000
vt 0.281250 0.500000
vt 0.250000 1.000000
vt 0.250000 0.500000
vt 0.218750 1.000000
vt 0.218750 0.500000
vt 0.187500 1.000000
vt 0.187500 0.500000
vt 0.156250 1.000000
vt 0.156250 0.500000
vt 0.125000 1.000000
vt 0.125000 0.500000
vt 0.093750 1.000000
vt 0.093750 0.500000
vt 0.062500 1.000000
vt 0.062500 0.500000
vt 0.158156 0.028269
vt 0.471731 0.158156
vt 0.341844 0.471731
vt 0.031250 1.000000
vt 0.031250 0.500000
vt 0.000000 1.000000
vt 0.000000 0.500000
vt 0.796822 0.014612
vt 0.514612 0.203178
vt 0.703178 0.485388
vt 1.000000 1.000000
vt 0.296822 0.485388
vt 0.250000 0.490000
vt 0.203178 0.485388
vt 0.158156 0.471731
vt 0.116663 0.449553
vt 0.080294 0.419706
vt 0.050447 0.383337
vt 0.028269 0.341844
vt 0.014612 0.296822
vt 0.010000 0.250000
vt 0.014612 0.203178
vt 0.028269 0.158156
vt 0.050447 0.116663
vt 0.080294 0.080294
vt 0.116663 0.050447
vt 0.203178 0.014612
vt 0.250000 0.010000
vt 0.296822 0.014612
vt 0.341844 0.028269
vt 0.383337 0.050447
vt 0.419706 0.080294
vt 0.449553 0.116663
vt 0.485388 0.203178
vt 0.490000 0.250000
vt 0.485388 0.296822
vt 0.471731 0.341844
vt 0.449553 0.383337
vt 0.419706 0.419706
vt 0.383337 0.449553
vt 0.750000 0.490000
vt 0.796822 0.485388
vt 0.841844 0.471731
vt 0.883337 0.449553
vt 0.919706 0.419706
vt 0.949553 0.383337
vt 0.971731 0.341844
vt 0.985388 0.296822
vt 0.990000 0.250000
vt 0.985388 0.203178
vt 0.971731 0.158156
vt 0.949553 0.116663
vt 0.919706 0.080294
vt 0.883337 0.050447
vt 0.841844 0.028269
vt 0.750000 0.010000
vt 0.703178 0.014612
vt 0.658156 0.028269
vt 0.616663 0.050447
vt 0.580294 0.080294
vt 0.550447 0.116663
vt 0.528269 0.158156
vt 0.510000 0.250000
vt 0.514612 0.296822
vt 0.528269 0.341844
vt 0.550447 0.383337
vt 0.580294 0.419706
vt 0.616663 0.449553
vt 0.658156 0.471731
vn 0.0980 0.0000 -0.9952
vn 0.2903 0.0000 -0.9569
vn 0.4714 0.0000 -0.8819
vn 0.6344 0.0000 -0.7730
vn 0.7730 0.0000 -0.6344
vn 0.8819 0.0000 -0.4714
vn 0.9569 0.0000 -0.2903
vn 0.9952 0.0000 -0.0980
vn 0.9952 0.0000 0.0980
vn 0.9569 0.0000 0.2903
vn 0.8819 0.0000 0.4714
vn 0.7730 0.0000 0.6344
vn 0.6344 0.0000 0.7730
vn 0.4714 0.0000 0.8819
vn 0.2903 0.0000 0.9569
vn 0.0980 0.0000 0.9952
vn -0.0980 0.0000 0.9952
vn -0.2903 0.0000 0.9569
vn -0.4714 0.0000 0.8819
vn -0.6344 0.0000 0.7730
vn -0.7730 0.0000 0.6344
vn -0.8819 0.0000 0.4714
vn -0.9569 0.0000 0.2903
vn -0.9952 0.0000 0.0980
vn -0.9952 0.0000 -0.0980
vn -0.9569 0.0000 -0.2903
vn -0.8819 0.0000 -0.4714
vn -0.7730 0.0000 -0.6344
vn -0.6344 0.0000 -0.7730
vn -0.4714 0.0000 -0.8819
vn 0.0000 1.0000 0.0000
vn -0.2903 0.0000 -0.9569
vn -0.0980 0.0000 -0.9952
vn 0.0000 -1.0000 0.0000
vn 0.0000 1.0000 -0.0001
vn 0.0000 1.0000 0.0001
usemtl Material.003
s off
f 65/131/37 68/132/37 67/133/37
f 67/133/38 70/134/38 69/135/38
f 69/135/39 72/136/39 71/137/39
f 71/137/40 74/138/40 73/139/40
f 73/139/41 76/140/41 75/141/41
f 75/141/42 78/142/42 77/143/42
f 77/143/43 80/144/43 79/145/43
f 79/145/44 82/146/44 81/147/44
f 81/147/45 84/148/45 83/149/45
f 83/149/46 86/150/46 85/151/46
f 85/151/47 88/152/47 87/153/47
f 87/153/48 90/154/48 89/155/48
f 89/155/49 92/156/49 91/157/49
f 91/157/50 94/158/50 93/159/50
f 93/159/51 96/160/51 95/161/51
f 95/161/52 98/162/52 97/163/52
f 97/163/53 100/164/53 99/165/53
f 99/165/54 102/166/54 101/167/54
f 101/167/55 104/168/55 103/169/55
f 103/169/56 106/170/56 105/171/56
f 105/171/57 108/172/57 107/173/57
f 107/173/58 110/174/58 109/175/58
f 109/175/59 112/176/59 111/177/59
f 111/177/60 114/178/60 113/179/60
f 113/179/61 116/180/61 115/181/61
f 115/181/62 118/182/62 117/183/62
f 117/183/63 120/184/63 119/185/63
f 119/185/64 122/186/64 121/187/64
f 121/187/65 124/188/65 123/189/65
f 123/189/66 126/190/66 125/191/66
f 102/192/67 86/193/67 70/194/67
f 125/191/68 128/195/68 127/196/68
f 127/196/69 66/197/69 65/198/69
f 95/199/70 111/200/70 127/201/70
f 65/131/37 66/202/37 68/132/37
f 67/133/38 68/132/38 70/134/38
f 69/135/39 70/134/39 72/136/39
f 71/137/40 72/136/40 74/138/40
f 73/139/41 74/138/41 76/140/41
f 75/141/42 76/140/42 78/142/42
f 77/143/43 78/142/43 80/144/43
f 79/145/44 80/144/44 82/146/44
f 81/147/45 82/146/45 84/148/45
f 83/149/46 84/148/46 86/150/46
f 85/151/47 86/150/47 88/152/47
f 87/153/48 88/152/48 90/154/48
f 89/155/49 90/154/49 92/156/49
f 91/157/50 92/156/50 94/158/50
f 93/159/51 94/158/51 96/160/51
f 95/161/52 96/160/52 98/162/52
f 97/163/53 98/162/53 100/164/53
f 99/165/54 100/164/54 102/166/54
f 101/167/55 102/166/55 104/168/55
f 103/169/56 104/168/56 106/170/56
f 105/171/57 106/170/57 108/172/57
f 107/173/58 108/172/58 110/174/58
f 109/175/59 110/174/59 112/176/59
f 111/177/60 112/176/60 114/178/60
f 113/179/61 114/178/61 116/180/61
f 115/181/62 116/180/62 118/182/62
f 117/183/63 118/182/63 120/184/63
f 119/185/64 120/184/64 122/186/64
f 121/187/65 122/186/65 124/188/65
f 123/189/66 124/188/66 126/190/66
f 70/194/71 68/203/71 66/204/71
f 66/204/67 128/205/67 126/206/67
f 126/206/72 124/207/72 122/208/72
f 122/208/71 120/209/71 118/210/71
f 118/210/67 116/211/67 114/212/67
f 114/212/67 112/213/67 110/214/67
f 110/214/72 108/215/72 106/216/72
f 106/216/67 104/217/67 102/192/67
f 102/192/67 100/218/67 98/219/67
f 98/219/67 96/220/67 94/221/67
f 94/221/67 92/222/67 90/223/67
f 90/223/71 88/224/71 86/193/71
f 86/193/67 84/225/67 82/226/67
f 82/226/67 80/227/67 78/228/67
f 78/228/67 76/229/67 74/230/67
f 74/230/67 72/231/67 70/194/67
f 70/194/67 66/204/67 126/206/67
f 126/206/67 122/208/67 118/210/67
f 118/210/67 114/212/67 110/214/67
f 110/214/71 106/216/71 102/192/71
f 102/192/67 98/219/67 94/221/67
f 94/221/67 90/223/67 86/193/67
f 86/193/67 82/226/67 78/228/67
f 78/228/67 74/230/67 70/194/67
f 70/194/67 126/206/67 118/210/67
f 118/210/67 110/214/67 102/192/67
f 102/192/67 94/221/67 86/193/67
f 86/193/67 78/228/67 70/194/67
f 70/194/67 118/210/67 102/192/67
f 125/191/68 126/190/68 128/195/68
f 127/196/69 128/195/69 66/197/69
f 127/201/70 65/232/70 67/233/70
f 67/233/70 69/234/70 71/235/70
f 71/235/70 73/236/70 75/237/70
f 75/237/70 77/238/70 79/239/70
f 79/239/70 81/240/70 83/241/70
f 83/241/70 85/242/70 87/243/70
f 87/243/70 89/244/70 91/245/70
f 91/245/70 93/246/70 95/199/70
f 95/199/70 97/247/70 99/248/70
f 99/248/70 101/249/70 103/250/70
f 103/250/70 105/251/70 107/252/70
f 107/252/70 109/253/70 111/200/70
f 111/200/70 113/254/70 115/255/70
f 115/255/70 117/256/70 119/257/70
f 119/257/70 121/258/70 123/259/70
f 123/259/70 125/260/70 127/201/70
f 127/201/70 67/233/70 71/235/70
f 71/235/70 75/237/70 79/239/70
f 79/239/70 83/241/70 87/243/70
f 87/243/70 91/245/70 95/199/70
f 95/199/70 99/248/70 103/250/70
f 103/250/70 107/252/70 111/200/70
f 111/200/70 115/255/70 119/257/70
f 119/257/70 123/259/70 127/201/70
f 127/201/70 71/235/70 79/239/70
f 79/239/70 87/243/70 95/199/70
f 95/199/70 103/250/70 111/200/70
f 111/200/70 119/257/70 127/201/70
f 127/201/70 79/239/70 95/199/70
o Cube_Cube.001
v -1.187871 11.862495 9.093139
v -1.187871 13.862495 9.093139
v -1.187871 11.862495 -8.626910
v -1.187871 13.862495 -8.626910
v 0.812129 11.862495 9.093139
v 0.812129 13.862495 9.093139
v 0.812129 11.862495 -8.626910
v 0.812129 13.862495 -8.626910
vt 0.375000 0.250000
vt 0.625000 0.500000
vt 0.375000 0.500000
vt 0.625000 0.750000
vt 0.375000 0.750000
vt 0.625000 1.000000
vt 0.375000 1.000000
vt 0.125000 0.500000
vt 0.125000 0.750000
vt 0.875000 0.750000
vt 0.375000 0.000000
vt 0.625000 0.000000
vt 0.625000 0.250000
vt 0.875000 0.500000
vn 0.0000 0.0000 -1.0000
vn 1.0000 0.0000 0.0000
vn 0.0000 0.0000 1.0000
vn 0.0000 -1.0000 0.0000
vn 0.0000 1.0000 0.0000
vn -1.0000 0.0000 0.0000
usemtl Material.001
s off
f 131/261/73 136/262/73 135/263/73
f 135/263/74 134/264/74 133/265/74
f 133/265/75 130/266/75 129/267/75
f 131/268/76 133/265/76 129/269/76
f 136/262/77 130/270/77 134/264/77
f 129/271/78 130/272/78 132/273/78
f 131/261/73 132/273/73 136/262/73
f 133/265/75 134/264/75 130/266/75
f 131/268/76 135/263/76 133/265/76
f 136/262/77 132/274/77 130/270/77
usemtl Material.002
f 129/271/78 132/273/78 131/261/78
f 135/263/74 136/262/74 134/264/74
