# Blender v3.0.1 OBJ File: 'house_3.blend'
# www.blender.org
mtllib house_3.mtl
o Cube
v 1.252557 4.145567 -2.838356
v 2.838356 -0.109438 -2.838356
v 0.711594 5.257802 1.002687
v 2.838356 -0.109438 2.838356
v -1.566899 4.589066 -2.838356
v -2.838356 -0.109438 -2.838356
v -2.226025 4.605583 2.457942
v -2.838356 -0.109438 2.838356
vt 0.625000 0.500000
vt 0.875000 0.750000
vt 0.625000 0.750000
vt 0.375000 0.750000
vt 0.625000 1.000000
vt 0.375000 1.000000
vt 0.375000 0.000000
vt 0.625000 0.250000
vt 0.375000 0.250000
vt 0.125000 0.500000
vt 0.125000 0.750000
vt 0.375000 0.500000
vt 0.875000 0.500000
vt 0.625000 0.000000
vn -0.3482 0.8862 -0.3056
vn 0.0000 0.0804 0.9968
vn -0.9653 0.2612 0.0000
vn 0.0000 -1.0000 0.0000
vn 0.9297 0.3684 0.0000
vn -0.0000 0.0000 -1.0000
vn 0.1554 0.9877 0.0163
vn 0.3266 0.4191 0.8471
vn -0.9854 0.1180 -0.1230
vn 0.9366 0.3491 0.0308
usemtl Material
s off
f 1/1/1 7/2/1 3/3/1
f 4/4/2 7/5/2 8/6/2
f 8/7/3 5/8/3 6/9/3
f 6/10/4 4/4/4 8/11/4
f 2/12/5 3/3/5 4/4/5
f 6/9/6 5/8/6 1/1/6 2/12/6
f 1/1/7 5/13/7 7/2/7
f 4/4/8 3/3/8 7/5/8
f 8/7/9 7/14/9 5/8/9
f 6/10/4 2/12/4 4/4/4
f 2/12/10 1/1/10 3/3/10
o Cube.001
v -2.434936 1.811418 1.090601
v -2.129821 3.774478 1.072197
v -2.362008 1.798902 -0.944809
v -1.943766 3.767453 -0.976931
v -0.793883 1.573139 0.830565
v -0.522861 3.554690 0.830565
v -1.083770 1.612787 -1.147918
v -0.812749 3.594339 -1.147918
vt 0.375000 0.000000
vt 0.625000 0.000000
vt 0.625000 0.250000
vt 0.375000 0.250000
vt 0.625000 0.500000
vt 0.375000 0.500000
vt 0.625000 0.750000
vt 0.375000 0.750000
vt 0.625000 1.000000
vt 0.375000 1.000000
vt 0.125000 0.500000
vt 0.125000 0.750000
vt 0.875000 0.500000
vt 0.875000 0.750000
vn -0.9817 0.1798 -0.0631
vn -0.1507 0.0183 -0.9884
vn 0.9801 -0.1341 -0.1463
vn 0.1502 -0.0173 0.9885
vn -0.1437 -0.9896 0.0011
vn 0.1427 0.9898 0.0043
usemtl Material.001
s off
f 9/15/11 10/16/11 12/17/11 11/18/11
f 11/18/12 12/17/12 16/19/12 15/20/12
f 15/20/13 16/19/13 14/21/13 13/22/13
f 13/22/14 14/21/14 10/23/14 9/24/14
f 11/25/15 15/20/15 13/22/15 9/26/15
f 16/19/16 12/27/16 10/28/16 14/21/16
o Cube.002
v -2.537506 1.819655 0.167004
v -2.059660 3.772919 0.136133
v -2.559956 1.822726 0.013777
v -2.082111 3.775990 -0.017094
v -0.900925 1.595816 -0.077274
v -0.629903 3.577368 -0.077274
v -0.923375 1.598887 -0.230501
v -0.652354 3.580438 -0.230501
vt 0.375000 0.000000
vt 0.625000 0.000000
vt 0.625000 0.250000
vt 0.375000 0.250000
vt 0.625000 0.500000
vt 0.375000 0.500000
vt 0.625000 0.750000
vt 0.375000 0.750000
vt 0.625000 1.000000
vt 0.375000 1.000000
vt 0.125000 0.500000
vt 0.125000 0.750000
vt 0.875000 0.500000
vt 0.875000 0.750000
vn -0.9605 0.2373 0.1455
vn -0.1449 0.0198 -0.9892
vn 0.9801 -0.1341 -0.1463
vn 0.1449 -0.0198 0.9892
vn -0.1355 -0.9908 -0.0000
vn 0.1355 0.9908 0.0000
usemtl Material
s off
f 17/29/17 18/30/17 20/31/17 19/32/17
f 19/32/18 20/31/18 24/33/18 23/34/18
f 23/34/19 24/33/19 22/35/19 21/36/19
f 21/36/20 22/35/20 18/37/20 17/38/20
f 19/39/21 23/34/21 21/36/21 17/40/21
f 24/33/22 20/41/22 18/42/22 22/35/22
o Cube.003
v -2.266106 2.688977 -1.025133
v -2.298561 2.750602 1.087574
v -2.244843 2.842329 -1.030154
v -2.277299 2.903954 1.082553
v -0.834438 2.493165 -0.891530
v -0.942088 2.576001 1.182810
v -0.813176 2.646516 -0.896550
v -0.920826 2.729353 1.177789
vt 0.375000 0.000000
vt 0.625000 0.000000
vt 0.625000 0.250000
vt 0.375000 0.250000
vt 0.625000 0.500000
vt 0.375000 0.500000
vt 0.625000 0.750000
vt 0.375000 0.750000
vt 0.625000 1.000000
vt 0.375000 1.000000
vt 0.125000 0.500000
vt 0.125000 0.750000
vt 0.875000 0.500000
vt 0.875000 0.750000
vn -0.9904 0.1367 -0.0192
vn 0.1340 0.9905 -0.0297
vn 0.9892 -0.1353 0.0567
vn -0.1340 -0.9905 0.0297
vn 0.0868 -0.0446 -0.9952
vn -0.0646 0.0416 0.9970
usemtl Material.002
s off
f 25/43/23 26/44/23 28/45/23 27/46/23
f 27/46/24 28/45/24 32/47/24 31/48/24
f 31/48/25 32/47/25 30/49/25 29/50/25
f 29/50/26 30/49/26 26/51/26 25/52/26
f 27/53/27 31/48/27 29/50/27 25/54/27
f 32/47/28 28/55/28 26/56/28 30/49/28
o Cube.006
v 2.090778 1.768863 -1.025907
v 1.423521 3.670647 -0.924592
v 2.170624 1.774798 0.971339
v 1.449801 3.726733 1.033756
v 0.275756 1.633941 -0.808422
v 0.127493 3.628438 -0.808422
v 0.511309 1.651451 1.177581
v 0.363046 3.645948 1.177581
vt 0.375000 0.000000
vt 0.625000 0.250000
vt 0.375000 0.250000
vt 0.625000 0.500000
vt 0.375000 0.500000
vt 0.625000 0.750000
vt 0.375000 0.750000
vt 0.625000 1.000000
vt 0.375000 1.000000
vt 0.125000 0.500000
vt 0.125000 0.750000
vt 0.875000 0.750000
vt 0.625000 0.000000
vt 0.875000 0.500000
vn 0.9370 0.3472 -0.0385
vn 0.1227 0.0091 0.9924
vn -0.9903 -0.0736 0.1181
vn -0.1068 0.0035 -0.9943
vn 0.0741 -0.9972 0.0000
vn -0.0330 0.9994 -0.0049
vn 0.9430 0.3320 -0.0222
vn 0.1300 0.0163 0.9914
vn -0.0777 0.9966 -0.0275
usemtl Material.004
s off
f 33/57/29 36/58/29 35/59/29
f 35/59/30 40/60/30 39/61/30
f 39/61/31 40/60/31 38/62/31 37/63/31
f 37/63/32 38/62/32 34/64/32 33/65/32
f 35/66/33 37/63/33 33/67/33
f 40/60/34 34/68/34 38/62/34
f 33/57/35 34/69/35 36/58/35
f 35/59/36 36/58/36 40/60/36
f 35/66/33 39/61/33 37/63/33
f 40/60/37 36/70/37 34/68/37
o Cube.005
v 2.205892 1.777420 -0.111920
v 1.449543 3.726714 -0.053624
v 2.224135 1.778776 0.041889
v 1.467786 3.728070 0.100185
v 0.698502 1.665366 0.074026
v 0.550239 3.659863 0.074026
v 0.716745 1.666722 0.227836
v 0.568482 3.661219 0.227836
vt 0.375000 0.000000
vt 0.625000 0.250000
vt 0.375000 0.250000
vt 0.625000 0.500000
vt 0.375000 0.500000
vt 0.625000 0.750000
vt 0.375000 0.750000
vt 0.625000 1.000000
vt 0.375000 1.000000
vt 0.125000 0.500000
vt 0.125000 0.750000
vt 0.875000 0.750000
vt 0.625000 0.000000
vt 0.875000 0.500000
vn 0.9252 0.3624 -0.1129
vn 0.1218 0.0091 0.9925
vn -0.9903 -0.0736 0.1181
vn -0.1281 -0.0147 -0.9916
vn 0.0741 -0.9972 -0.0000
vn -0.0741 0.9972 0.0000
vn 0.1387 0.0242 0.9900
usemtl Material.005
s off
f 41/71/38 44/72/38 43/73/38
f 43/73/39 48/74/39 47/75/39
f 47/75/40 48/74/40 46/76/40 45/77/40
f 45/77/41 46/76/41 42/78/41 41/79/41
f 43/80/42 47/75/42 45/77/42 41/81/42
f 48/74/43 42/82/43 46/76/43
f 41/71/38 42/83/38 44/72/38
f 43/73/44 44/72/44 48/74/44
f 48/74/43 44/84/43 42/82/43
o Cube.004
v 1.933532 2.648475 1.077393
v 1.779976 2.704731 -1.012083
v 1.921628 2.802835 1.082404
v 1.768072 2.859092 -1.007072
v 0.540450 2.544918 0.914326
v 0.711787 2.625326 -1.155822
v 0.528546 2.699279 0.919337
v 0.699883 2.779686 -1.150812
vt 0.375000 0.000000
vt 0.625000 0.250000
vt 0.375000 0.250000
vt 0.625000 0.500000
vt 0.375000 0.500000
vt 0.625000 0.750000
vt 0.375000 0.750000
vt 0.625000 1.000000
vt 0.375000 1.000000
vt 0.125000 0.500000
vt 0.125000 0.750000
vt 0.875000 0.500000
vt 0.875000 0.750000
vt 0.625000 0.000000
vn 0.9943 0.0790 -0.0709
vn -0.0778 0.9964 0.0323
vn -0.9936 -0.0739 -0.0851
vn 0.0779 -0.9964 -0.0326
vn -0.1132 -0.0409 0.9927
vn 0.1302 0.0422 -0.9906
vn -0.0785 0.9964 0.0326
vn 0.0784 -0.9964 -0.0322
usemtl Material.003
s off
f 49/85/45 52/86/45 51/87/45
f 51/87/46 56/88/46 55/89/46
f 55/89/47 56/88/47 54/90/47 53/91/47
f 53/91/48 50/92/48 49/93/48
f 51/94/49 53/91/49 49/95/49
f 56/88/50 52/96/50 50/97/50 54/90/50
f 49/85/45 50/98/45 52/86/45
f 51/87/51 52/86/51 56/88/51
f 53/91/52 54/90/52 50/92/52
f 51/94/49 55/89/49 53/91/49
o Cube.009
v -1.809878 2.059881 2.729218
v -0.699969 2.095672 2.587634
v -1.812532 2.141990 2.728956
v -0.704011 2.177781 2.719779
v -1.715155 2.059881 2.125992
v -0.618561 2.095672 2.234106
v -1.717809 2.141990 2.125731
v -0.621215 2.177781 2.233845
vt 0.375000 0.000000
vt 0.625000 0.250000
vt 0.375000 0.250000
vt 0.625000 0.500000
vt 0.375000 0.500000
vt 0.625000 0.750000
vt 0.375000 0.750000
vt 0.625000 1.000000
vt 0.375000 1.000000
vt 0.125000 0.500000
vt 0.125000 0.750000
vt 0.875000 0.750000
vt 0.625000 0.000000
vt 0.875000 0.500000
vn 0.0082 0.0034 1.0000
vn -0.0321 0.9995 -0.0050
vn 0.0981 0.0000 -0.9952
vn 0.0325 -0.9995 0.0060
vn -0.9874 -0.0324 -0.1550
vn 0.9740 0.0322 0.2243
vn 0.0945 -0.8443 0.5275
vn -0.0323 0.9995 -0.0055
vn 0.9624 -0.2165 0.1640
usemtl Material.008
s off
f 57/99/53 60/100/53 59/101/53
f 59/101/54 64/102/54 63/103/54
f 63/103/55 64/102/55 62/104/55 61/105/55
f 61/105/56 62/104/56 58/106/56 57/107/56
f 59/108/57 63/103/57 61/105/57 57/109/57
f 64/102/58 58/110/58 62/104/58
f 57/99/59 58/111/59 60/100/59
f 59/101/60 60/100/60 64/102/60
f 64/102/61 60/112/61 58/110/61
o Cube.008
v -1.179815 1.588476 2.790151
v -1.208619 2.649186 2.667896
v -1.261508 1.588476 2.798786
v -1.290312 2.649186 2.676531
v -1.270192 1.588476 2.200785
v -1.270192 2.649186 2.200785
v -1.351885 1.588476 2.209421
v -1.351885 2.649186 2.209421
vt 0.375000 0.000000
vt 0.625000 0.250000
vt 0.375000 0.250000
vt 0.625000 0.500000
vt 0.375000 0.500000
vt 0.625000 0.750000
vt 0.375000 0.750000
vt 0.625000 1.000000
vt 0.375000 1.000000
vt 0.125000 0.500000
vt 0.125000 0.750000
vt 0.875000 0.750000
vt 0.625000 0.000000
vt 0.875000 0.500000
vn 0.1044 0.1167 0.9877
vn -0.9898 -0.0052 0.1424
vn -0.1051 0.0000 -0.9945
vn 0.9884 0.0094 -0.1516
vn 0.0000 -1.0000 0.0000
vn 0.0000 1.0000 -0.0000
vn 0.9914 0.0000 -0.1307
usemtl Material.006
s off
f 65/113/62 68/114/62 67/115/62
f 67/115/63 68/114/63 72/116/63 71/117/63
f 71/117/64 72/116/64 70/118/64 69/119/64
f 69/119/65 66/120/65 65/121/65
f 67/122/66 71/117/66 69/119/66 65/123/66
f 72/116/67 66/124/67 70/118/67
f 65/113/62 66/125/62 68/114/62
f 69/119/68 70/118/68 66/120/68
f 72/116/67 68/126/67 66/124/67
o Cube.007
v -0.693599 1.588476 2.749142
v -0.748671 2.620555 2.597026
v -1.753517 1.588476 2.744711
v -1.782146 2.649186 2.682245
v -0.796162 1.588476 2.003838
v -0.796162 2.649186 2.003838
v -1.850995 1.588476 2.115340
v -1.524553 2.403165 2.118763
vt 0.375000 0.000000
vt 0.625000 0.250000
vt 0.375000 0.250000
vt 0.625000 0.500000
vt 0.375000 0.500000
vt 0.625000 0.750000
vt 0.375000 0.750000
vt 0.625000 1.000000
vt 0.375000 1.000000
vt 0.125000 0.500000
vt 0.125000 0.750000
vt 0.875000 0.750000
vt 0.625000 0.000000
vt 0.875000 0.500000
vn -0.0042 0.0587 0.9983
vn -0.9190 0.3676 0.1423
vn -0.1292 0.0243 -0.9913
vn 0.9901 0.0328 -0.1363
vn 0.0000 -1.0000 0.0000
vn -0.3092 0.9484 0.0705
vn 0.0854 0.1497 0.9850
vn -0.9162 -0.0482 -0.3978
vn 0.9968 0.0000 -0.0798
vn -0.0079 0.9151 -0.4031
usemtl Material.007
s off
f 73/127/69 76/128/69 75/129/69
f 75/129/70 80/130/70 79/131/70
f 79/131/71 80/130/71 78/132/71 77/133/71
f 77/133/72 74/134/72 73/135/72
f 75/136/73 79/131/73 77/133/73 73/137/73
f 80/130/74 74/138/74 78/132/74
f 73/127/75 74/139/75 76/128/75
f 75/129/76 76/128/76 80/130/76
f 77/133/77 78/132/77 74/134/77
f 80/130/78 76/140/78 74/138/78
o Cube.012
v 1.573560 2.105997 2.341503
v 1.451007 3.021624 1.848407
v 0.550966 2.207423 2.602381
v 0.502987 3.158240 2.120786
v 1.399217 1.975260 2.005236
v 1.369238 2.925170 1.521307
v 0.401629 2.105873 2.341185
v 0.401629 3.094493 1.956822
vt 0.375000 0.000000
vt 0.625000 0.250000
vt 0.375000 0.250000
vt 0.625000 0.500000
vt 0.375000 0.500000
vt 0.625000 0.750000
vt 0.375000 0.750000
vt 0.625000 1.000000
vt 0.375000 1.000000
vt 0.125000 0.500000
vt 0.125000 0.750000
vt 0.875000 0.750000
vt 0.625000 0.000000
vt 0.875000 0.500000
vn 0.2625 0.4465 0.8554
vn -0.8764 0.1781 0.4475
vn -0.3876 -0.3818 -0.8390
vn 0.8991 -0.1081 -0.4241
vn 0.0000 -0.9320 0.3624
vn 0.0363 0.9560 -0.2910
vn 0.3054 0.4829 0.8207
vn 0.9723 -0.0810 -0.2192
vn 0.0255 0.9263 -0.3759
usemtl Material.010
s off
f 81/141/79 84/142/79 83/143/79
f 83/143/80 84/142/80 88/144/80 87/145/80
f 87/145/81 88/144/81 86/146/81 85/147/81
f 85/147/82 82/148/82 81/149/82
f 83/150/83 87/145/83 85/147/83 81/151/83
f 88/144/84 82/152/84 86/146/84
f 81/141/85 82/153/85 84/142/85
f 85/147/86 86/146/86 82/148/86
f 88/144/87 84/154/87 82/152/87
o Cube.011
v 1.165168 2.152120 2.460137
v 1.114148 3.096663 1.962405
v 1.087908 2.162235 2.486155
v 1.036888 3.106779 1.988423
v 1.038958 2.072641 2.255710
v 1.038958 3.061261 1.871347
v 0.961698 2.082757 2.281728
v 0.897200 2.988095 1.683156
vt 0.375000 0.000000
vt 0.625000 0.250000
vt 0.375000 0.250000
vt 0.625000 0.500000
vt 0.375000 0.500000
vt 0.625000 0.750000
vt 0.375000 0.750000
vt 0.625000 1.000000
vt 0.375000 1.000000
vt 0.125000 0.500000
vt 0.125000 0.750000
vt 0.875000 0.750000
vt 0.625000 0.000000
vt 0.875000 0.500000
vn 0.3372 0.4531 0.8252
vn -0.8654 0.2320 0.4441
vn 0.6207 -0.3444 -0.7044
vn 0.8666 -0.1952 -0.4592
vn 0.0000 -0.9320 0.3624
vn 0.0000 -0.9320 0.3623
vn -0.9198 0.1428 0.3654
vn 0.7925 -0.2210 -0.5685
vn 0.0000 0.9320 -0.3624
usemtl Material.011
s off
f 89/155/88 92/156/88 91/157/88
f 91/157/89 96/158/89 95/159/89
f 95/159/90 96/158/90 94/160/90 93/161/90
f 93/161/91 90/162/91 89/163/91
f 91/164/92 95/159/92 93/161/92 89/165/92
f 96/158/93 90/166/93 94/160/93
f 89/155/88 90/167/88 92/156/88
f 91/157/94 92/156/94 96/158/94
f 93/161/95 94/160/95 90/162/95
f 96/158/96 92/168/96 90/166/96
o Cube.010
v 0.477397 2.649294 2.438004
v 1.613253 2.552363 2.089916
v 0.474757 2.725960 2.408605
v 1.604805 2.621529 2.041227
v 0.593847 2.531347 2.134633
v 1.684489 2.507748 1.975164
v 0.591207 2.608013 2.105235
v 1.681849 2.584414 1.945765
vt 0.375000 0.000000
vt 0.625000 0.250000
vt 0.375000 0.250000
vt 0.625000 0.500000
vt 0.375000 0.500000
vt 0.625000 0.750000
vt 0.375000 0.750000
vt 0.625000 1.000000
vt 0.375000 1.000000
vt 0.125000 0.500000
vt 0.125000 0.750000
vt 0.875000 0.750000
vt 0.625000 0.000000
vt 0.875000 0.500000
vn 0.3188 0.3489 0.8813
vn -0.0346 0.9269 -0.3736
vn -0.1426 -0.3587 -0.9225
vn 0.0355 -0.9268 0.3739
vn -0.9412 -0.1488 -0.3034
vn 0.8653 0.2052 0.4574
vn 0.2842 0.5749 0.7673
vn -0.0423 0.9192 -0.3915
vn 0.0358 -0.9237 0.3813
vn 0.7786 0.4220 0.4644
usemtl Material.009
s off
f 97/169/97 100/170/97 99/171/97
f 99/171/98 104/172/98 103/173/98
f 103/173/99 104/172/99 102/174/99 101/175/99
f 101/175/100 98/176/100 97/177/100
f 99/178/101 103/173/101 101/175/101 97/179/101
f 104/172/102 98/180/102 102/174/102
f 97/169/103 98/181/103 100/170/103
f 99/171/104 100/170/104 104/172/104
f 101/175/105 102/174/105 98/176/105
f 104/172/106 100/182/106 98/180/106
o Cube.013
v -0.300777 -0.105133 2.867591
v -0.300777 1.859461 2.700981
v -0.300777 -0.105133 2.641624
v -0.300777 1.859461 2.641624
v 0.523179 -0.105133 2.867591
v 0.523179 1.859461 2.725318
v 0.523179 -0.105133 2.641624
v 0.523179 1.859461 2.641624
vt 0.375000 0.000000
vt 0.625000 0.000000
vt 0.625000 0.250000
vt 0.375000 0.250000
vt 0.625000 0.500000
vt 0.375000 0.500000
vt 0.625000 0.750000
vt 0.375000 0.750000
vt 0.625000 1.000000
vt 0.375000 1.000000
vt 0.125000 0.500000
vt 0.125000 0.750000
vt 0.875000 0.750000
vt 0.875000 0.500000
vn -1.0000 -0.0000 0.0000
vn 0.0000 0.0000 -1.0000
vn 1.0000 0.0000 0.0000
vn 0.0000 0.0845 0.9964
vn 0.0000 -1.0000 0.0000
vn 0.0000 1.0000 0.0000
vn -0.0294 0.0722 0.9970
usemtl Material.012
s off
f 105/183/107 106/184/107 108/185/107 107/186/107
f 107/186/108 108/185/108 112/187/108 111/188/108
f 111/188/109 110/189/109 109/190/109
f 109/190/110 106/191/110 105/192/110
f 107/193/111 109/190/111 105/194/111
f 112/187/112 106/195/112 110/189/112
f 111/188/109 112/187/109 110/189/109
f 109/190/113 110/189/113 106/191/113
f 107/193/111 111/188/111 109/190/111
f 112/187/112 108/196/112 106/195/112
